<svg id="圖層_1" data-name="圖層 1" xmlns="http://www.w3.org/2000/svg" viewBox="0 0 24 24"><defs><style>.cls-1{fill:#231f20;}</style></defs><path class="cls-1" d="M7.8,21.5a1.37,1.37,0,0,0,1-.42L10.85,19,16.91,13l.11-.13,0,0,0,0a1.12,1.12,0,0,0,.25-.71V12a1.12,1.12,0,0,0-.25-.71l0,0,0,0-.11-.13L8.77,2.92a1.37,1.37,0,0,0-1-.42,1.12,1.12,0,0,0-.8.32,1.06,1.06,0,0,0-.32.82,1.36,1.36,0,0,0,.41,1l5.64,5.63L14.49,12l-1.76,1.77L7.09,19.4a1.36,1.36,0,0,0-.41,1,1.06,1.06,0,0,0,.32.82A1.12,1.12,0,0,0,7.8,21.5Z"/></svg>